<svg xmlns="http://www.w3.org/2000/svg" xmlns:xlink="http://www.w3.org/1999/xlink" width="64.4" height="71.99" viewBox="0 0 64.4 71.99">
  <defs>
    <linearGradient id="linear-gradient" x2="1" y2="1" gradientUnits="objectBoundingBox">
      <stop offset="0" stop-color="#008cc3"/>
      <stop offset="1" stop-color="#2b307d"/>
    </linearGradient>
  </defs>
  <g id="bill" transform="translate(-27 0.002)">
    <g id="Group_312" data-name="Group 312" transform="translate(27.005)">
      <g id="Group_311" data-name="Group 311">
        <path id="Path_126" data-name="Path 126" d="M89.993,34.588H79.586V1.406a1.406,1.406,0,0,0-2.4-.994L73.2,4.395,69.22.412a1.406,1.406,0,0,0-1.989,0L63.249,4.4,59.266.412a1.406,1.406,0,0,0-1.989,0L53.295,4.4,49.312.412a1.406,1.406,0,0,0-1.988,0L43.34,4.4,39.358.412a1.406,1.406,0,0,0-1.989,0L33.386,4.4,29.4.412A1.4,1.4,0,0,0,27,1.443V64.677a7.319,7.319,0,0,0,7.311,7.311H84.088A7.319,7.319,0,0,0,91.4,64.677V35.994a1.406,1.406,0,0,0-1.407-1.406ZM34.316,69.176a4.5,4.5,0,0,1-4.5-4.5V4.8l2.575,2.575a1.406,1.406,0,0,0,1.989,0l3.983-3.983,3.983,3.983a1.406,1.406,0,0,0,1.989,0l3.983-3.983L52.3,7.378a1.406,1.406,0,0,0,1.988,0l3.983-3.983,3.983,3.983a1.406,1.406,0,0,0,1.989,0l3.983-3.983L72.21,7.378a1.406,1.406,0,0,0,1.988,0L76.775,4.8V64.677a7.273,7.273,0,0,0,1.555,4.5H34.316Zm54.271-4.5a4.5,4.5,0,0,1-9,0V37.4h9V64.677Z" transform="translate(-27.005)" fill="url(#linear-gradient)"/>
      </g>
    </g>
    <g id="Group_314" data-name="Group 314" transform="translate(47.953 13.008)">
      <g id="Group_313" data-name="Group 313">
        <path id="Path_127" data-name="Path 127" d="M181.339,101.841a2.193,2.193,0,1,1,2.531-2.167,1.406,1.406,0,0,0,2.812,0,5.058,5.058,0,0,0-3.937-4.8v-.952a1.406,1.406,0,0,0-2.812,0v.952a5.058,5.058,0,0,0-3.937,4.8,5.176,5.176,0,0,0,5.343,4.979,2.193,2.193,0,1,1-2.531,2.167,1.406,1.406,0,0,0-2.812,0,5.058,5.058,0,0,0,3.937,4.8v1.147a1.406,1.406,0,1,0,2.812,0V111.62a5.058,5.058,0,0,0,3.937-4.8,5.176,5.176,0,0,0-5.343-4.979Z" transform="translate(-175.996 -92.513)" fill="url(#linear-gradient)"/>
      </g>
    </g>
    <g id="Group_316" data-name="Group 316" transform="translate(63.275 22.336)">
      <g id="Group_315" data-name="Group 315">
        <path id="Path_128" data-name="Path 128" d="M289.117,158.856h-2.74a1.406,1.406,0,0,0,0,2.812h2.74a1.406,1.406,0,1,0,0-2.812Z" transform="translate(-284.971 -158.856)" fill="url(#linear-gradient)"/>
      </g>
    </g>
    <g id="Group_318" data-name="Group 318" transform="translate(37.764 22.336)">
      <g id="Group_317" data-name="Group 317">
        <path id="Path_129" data-name="Path 129" d="M107.676,158.856h-2.74a1.406,1.406,0,0,0,0,2.812h2.74a1.406,1.406,0,1,0,0-2.812Z" transform="translate(-103.53 -158.856)" fill="url(#linear-gradient)"/>
      </g>
    </g>
    <g id="Group_320" data-name="Group 320" transform="translate(44.452 37.964)">
      <g id="Group_319" data-name="Group 319">
        <path id="Path_130" data-name="Path 130" d="M174.778,270.007H152.5a1.406,1.406,0,1,0,0,2.812h22.275a1.406,1.406,0,0,0,0-2.812Z" transform="translate(-151.097 -270.007)" fill="url(#linear-gradient)"/>
      </g>
    </g>
    <g id="Group_322" data-name="Group 322" transform="translate(37.053 37.964)">
      <g id="Group_321" data-name="Group 321">
        <path id="Path_131" data-name="Path 131" d="M100.868,270.419a1.4,1.4,0,1,0,.412.994,1.4,1.4,0,0,0-.412-.994Z" transform="translate(-98.468 -270.007)" fill="url(#linear-gradient)"/>
      </g>
    </g>
    <g id="Group_324" data-name="Group 324" transform="translate(44.452 47.243)">
      <g id="Group_323" data-name="Group 323">
        <path id="Path_132" data-name="Path 132" d="M174.778,336.005H152.5a1.406,1.406,0,0,0,0,2.812h22.275a1.406,1.406,0,0,0,0-2.812Z" transform="translate(-151.097 -336.005)" fill="url(#linear-gradient)"/>
      </g>
    </g>
    <g id="Group_326" data-name="Group 326" transform="translate(37.053 47.243)">
      <g id="Group_325" data-name="Group 325">
        <path id="Path_133" data-name="Path 133" d="M100.868,336.417a1.405,1.405,0,1,0,.412.994,1.405,1.405,0,0,0-.412-.994Z" transform="translate(-98.468 -336.005)" fill="url(#linear-gradient)"/>
      </g>
    </g>
    <g id="Group_328" data-name="Group 328" transform="translate(44.452 56.523)">
      <g id="Group_327" data-name="Group 327">
        <path id="Path_134" data-name="Path 134" d="M174.778,402H152.5a1.406,1.406,0,0,0,0,2.812h22.275a1.406,1.406,0,0,0,0-2.812Z" transform="translate(-151.097 -402.003)" fill="url(#linear-gradient)"/>
      </g>
    </g>
    <g id="Group_330" data-name="Group 330" transform="translate(37.053 56.523)">
      <g id="Group_329" data-name="Group 329">
        <path id="Path_135" data-name="Path 135" d="M100.868,402.415a1.405,1.405,0,1,0,.412.994,1.405,1.405,0,0,0-.412-.994Z" transform="translate(-98.468 -402.003)" fill="url(#linear-gradient)"/>
      </g>
    </g>
  </g>
</svg>
