<svg xmlns="http://www.w3.org/2000/svg" xmlns:xlink="http://www.w3.org/1999/xlink" width="90.602" height="90" viewBox="0 0 90.602 90">
  <defs>
    <linearGradient id="linear-gradient" x1="0.5" x2="0.5" y2="1" gradientUnits="objectBoundingBox">
      <stop offset="0" stop-color="#008cc3"/>
      <stop offset="1" stop-color="#2b307d"/>
    </linearGradient>
  </defs>
  <g id="users" transform="translate(-16625.398 1067)">
    <g id="Group_467" data-name="Group 467" transform="translate(107)">
      <g id="Group_465" data-name="Group 465" transform="translate(89 4)">
        <rect id="Rectangle_53" data-name="Rectangle 53" width="90" height="90" transform="translate(16430 -1071)" fill="none"/>
      </g>
    </g>
    <g id="team" transform="translate(16625.398 -1123.711)">
      <g id="Group_451" data-name="Group 451" transform="translate(69.5 96.447)">
        <g id="Group_450" data-name="Group 450">
          <path id="Path_206" data-name="Path 206" d="M403.186,230.008c-3.083-1.541-8.863-1.559-9.108-1.559a1.327,1.327,0,0,0,0,2.654c1.492,0,5.822.23,7.921,1.279a1.327,1.327,0,1,0,1.187-2.374Z" transform="translate(-392.751 -228.449)" fill="url(#linear-gradient)"/>
        </g>
      </g>
      <g id="Group_453" data-name="Group 453" transform="translate(0 68.066)">
        <g id="Group_452" data-name="Group 452">
          <path id="Path_207" data-name="Path 207" d="M86.551,116.9l-5.481-1.566a.556.556,0,0,1-.4-.533v-1.83a9.974,9.974,0,0,0,1.269-1.041,9.763,9.763,0,0,0,2.988-7.063v-2.525l.53-1.06a8.467,8.467,0,0,0,.889-3.767V90.679a1.327,1.327,0,0,0-1.327-1.327H72.246a8.432,8.432,0,0,0-8.422,8.422v.079a7.039,7.039,0,0,0,.739,3.132l.68,1.359v2.168a10.355,10.355,0,0,0,4.257,8.373V114.8c0,.3,0,.418-1.1.731l-2.675.764-7.737-2.813a1.326,1.326,0,0,0-.362-1.016l-2.472-2.6v-4.36c.261-.215.519-.437.769-.67a15.577,15.577,0,0,0,4.908-11.324V90.035a15.341,15.341,0,0,0,1.419-6.451V69.393a1.327,1.327,0,0,0-1.327-1.327H41.06A12.694,12.694,0,0,0,28.381,80.745v2.838A15.341,15.341,0,0,0,29.8,90.035v3a16.217,16.217,0,0,0,5.676,12.377v4.463L33,112.469a1.326,1.326,0,0,0-.362,1.016l-8.166,2.969a6.96,6.96,0,0,0-1.641.86l-1.282-.641c3.817-1.661,5.026-4,5.084-4.114a1.327,1.327,0,0,0,0-1.187c-.957-1.914-1.073-5.421-1.166-8.239-.031-.938-.06-1.825-.116-2.614C24.9,94.152,20.064,89.352,14.1,89.352s-10.8,4.8-11.257,11.166c-.056.789-.085,1.676-.116,2.614-.093,2.818-.209,6.325-1.166,8.239a1.327,1.327,0,0,0,0,1.187c.058.116,1.265,2.448,5.089,4.111L3.087,118.45a5.555,5.555,0,0,0-3.087,5v9.8a1.327,1.327,0,0,0,2.654,0v-9.8a2.914,2.914,0,0,1,1.62-2.621l4.435-2.217,1.543,1.466a5.581,5.581,0,0,0,7.694,0l1.543-1.466,1.446.723a6.989,6.989,0,0,0-1.067,3.705v10.21a1.327,1.327,0,0,0,2.654,0V123.036a4.362,4.362,0,0,1,2.863-4.087l8.609-3.131,3.584,5.376a2.736,2.736,0,0,0,2.014,1.21,2.514,2.514,0,0,0,.274.013,2.735,2.735,0,0,0,1.939-.8l2.186-2.186v13.825a1.327,1.327,0,0,0,2.654,0v-13.83l2.186,2.186a2.734,2.734,0,0,0,1.939.8q.136,0,.274-.013a2.736,2.736,0,0,0,2.014-1.209l3.584-5.376,8.609,3.131a4.363,4.363,0,0,1,2.863,4.087v10.215a1.327,1.327,0,0,0,2.654,0V123.036A7.016,7.016,0,0,0,68.8,118.18l.328-.094a7.28,7.28,0,0,0,1.235-.446l3.389,3.389v12.222a1.327,1.327,0,0,0,2.654,0V121.029l3.365-3.365a3.156,3.156,0,0,0,.565.224l5.481,1.566a2.943,2.943,0,0,1,2.125,2.817V133.25a1.327,1.327,0,0,0,2.654,0V122.272a5.609,5.609,0,0,0-4.05-5.372ZM8.514,114.557a9.541,9.541,0,0,1-4.259-2.735,14.629,14.629,0,0,0,.756-3.178,9.9,9.9,0,0,0,3.5,4.322Zm7.6,3.592a2.929,2.929,0,0,1-4.037,0l-1.234-1.173a2.746,2.746,0,0,0,.323-1.3v-1.415a9.869,9.869,0,0,0,5.86,0v1.414a2.746,2.746,0,0,0,.323,1.3ZM14.1,112.057a7.2,7.2,0,0,1-7.187-7.187,1.319,1.319,0,0,0-1.545-1.308c0-.114.008-.228.012-.342.03-.913.058-1.775.111-2.514a9.853,9.853,0,0,1,2.683-6.188,8.246,8.246,0,0,1,11.853,0,9.853,9.853,0,0,1,2.683,6.188c.052.739.081,1.6.111,2.513l.008.237a11.925,11.925,0,0,0-6.555-4.79,16.657,16.657,0,0,0-5.048-.8,1.327,1.327,0,0,0-.919.4l-2.4,2.483a1.328,1.328,0,0,0,1.91,1.846l1.993-2.066c1.716.084,7.236.726,9.383,5.454A7.17,7.17,0,0,1,14.1,112.057Zm5.583,2.5v-1.583a9.817,9.817,0,0,0,3.5-4.326,14.611,14.611,0,0,0,.756,3.171,9.587,9.587,0,0,1-4.256,2.738ZM32.454,93.031V89.738a1.327,1.327,0,0,0-.132-.577,12.73,12.73,0,0,1-1.287-5.577V80.746A10.036,10.036,0,0,1,41.06,70.72H59.6V83.584a12.729,12.729,0,0,1-1.287,5.576,1.327,1.327,0,0,0-.132.578v3.779a12.741,12.741,0,0,1-4.068,9.387,13.2,13.2,0,0,1-1.019.863l-.023.017a12.761,12.761,0,0,1-8.612,2.569,13.145,13.145,0,0,1-12-13.322Zm7.473,26.7a.083.083,0,0,1-.074.026.084.084,0,0,1-.067-.041l-4.128-6.191,1.328-1.4,6.262,4.28Zm5.391-5.122L38.131,109.7v-2.477A14.943,14.943,0,0,0,44.287,109q.525.034,1.044.034a15.373,15.373,0,0,0,7.173-1.758V109.7Zm5.532,5.108a.084.084,0,0,1-.067.041.082.082,0,0,1-.074-.026l-3.321-3.321,6.262-4.28,1.328,1.4Zm24.234-1.12-3.012-3.012a3.642,3.642,0,0,0,.082-.788v-.56a9.306,9.306,0,0,0,2.628.464h.306a9.858,9.858,0,0,0,2.926-.443v.534a3.173,3.173,0,0,0,.1.773Zm5-8.574a7.133,7.133,0,0,1-5.227,2.025,7.429,7.429,0,0,1-6.965-7.541v-2.481a1.326,1.326,0,0,0-.14-.594l-.82-1.64a4.372,4.372,0,0,1-.459-1.945v-.079A5.775,5.775,0,0,1,72.241,92H83.69v5.512a5.8,5.8,0,0,1-.609,2.58l-.67,1.34a1.326,1.326,0,0,0-.14.594v2.838a7.13,7.13,0,0,1-2.182,5.164Z" transform="translate(0 -68.066)" fill="url(#linear-gradient)"/>
        </g>
      </g>
      <g id="Group_455" data-name="Group 455" transform="translate(82.271 123.409)">
        <g id="Group_454" data-name="Group 454">
          <path id="Path_208" data-name="Path 208" d="M466.25,380.814a1.327,1.327,0,0,0-1.327,1.327v8.514a1.327,1.327,0,0,0,2.654,0v-8.514a1.327,1.327,0,0,0-1.327-1.327Z" transform="translate(-464.923 -380.814)" fill="url(#linear-gradient)"/>
        </g>
      </g>
      <g id="Group_457" data-name="Group 457" transform="translate(5.676 125.163)">
        <g id="Group_456" data-name="Group 456">
          <path id="Path_209" data-name="Path 209" d="M33.4,390.728a1.327,1.327,0,0,0-1.327,1.327v6.76a1.327,1.327,0,1,0,2.654,0v-6.76A1.327,1.327,0,0,0,33.4,390.728Z" transform="translate(-32.077 -390.728)" fill="url(#linear-gradient)"/>
        </g>
      </g>
      <g id="Group_459" data-name="Group 459" transform="translate(34.057 80.123)">
        <g id="Group_458" data-name="Group 458">
          <path id="Path_210" data-name="Path 210" d="M214.592,140.144c-5.02-5.02-15.522-4.06-19.8-3.414a2.725,2.725,0,0,0-2.328,2.714V142.5a1.327,1.327,0,0,0,2.654,0v-3.058a.088.088,0,0,1,.069-.09,41.93,41.93,0,0,1,8.622-.421c4.139.276,7.136,1.314,8.91,3.088a1.327,1.327,0,1,0,1.877-1.877Z" transform="translate(-192.46 -136.203)" fill="url(#linear-gradient)"/>
        </g>
      </g>
      <g id="Group_461" data-name="Group 461" transform="translate(28.381 126.247)">
        <g id="Group_460" data-name="Group 460">
          <path id="Path_211" data-name="Path 211" d="M161.711,396.853a1.327,1.327,0,0,0-1.327,1.327v5.676a1.327,1.327,0,1,0,2.654,0V398.18A1.327,1.327,0,0,0,161.711,396.853Z" transform="translate(-160.384 -396.853)" fill="url(#linear-gradient)"/>
        </g>
      </g>
      <g id="Group_463" data-name="Group 463" transform="translate(59.6 126.247)">
        <g id="Group_462" data-name="Group 462">
          <path id="Path_212" data-name="Path 212" d="M338.133,396.853a1.327,1.327,0,0,0-1.327,1.327v5.676a1.327,1.327,0,1,0,2.654,0V398.18A1.327,1.327,0,0,0,338.133,396.853Z" transform="translate(-336.806 -396.853)" fill="url(#linear-gradient)"/>
        </g>
      </g>
    </g>
  </g>
</svg>
