<svg xmlns="http://www.w3.org/2000/svg" width="447.569" height="471.53" viewBox="0 0 447.569 471.53">
  <g id="Group_1151" data-name="Group 1151" transform="translate(-142.079 -251.72)">
    <g id="Group_1129" data-name="Group 1129" transform="translate(352.669 305.51)">
      <g id="Group_1127" data-name="Group 1127" transform="translate(9.94 25.117)">
        <rect id="Rectangle_219" data-name="Rectangle 219" width="21.347" height="25.624" fill="#5456a1"/>
      </g>
      <g id="Group_1128" data-name="Group 1128">
        <path id="Path_1514" data-name="Path 1514" d="M217.954,277.618H176.737l20.611-27.047h0Z" transform="translate(-176.737 -250.57)" fill="#5456a1"/>
      </g>
    </g>
    <g id="Group_1137" data-name="Group 1137" transform="translate(142.079 343.482)">
      <g id="Group_1130" data-name="Group 1130" transform="translate(33.757)">
        <rect id="Rectangle_220" data-name="Rectangle 220" width="13.509" height="379.768" fill="#052d72"/>
      </g>
      <g id="Group_1131" data-name="Group 1131" transform="translate(0 339.286)">
        <rect id="Rectangle_221" data-name="Rectangle 221" width="409.836" height="13.478" fill="#052d72"/>
      </g>
      <g id="Group_1132" data-name="Group 1132" transform="translate(66.451 233.151)">
        <rect id="Rectangle_222" data-name="Rectangle 222" width="62.392" height="86.936" fill="#007db6"/>
      </g>
      <g id="Group_1133" data-name="Group 1133" transform="translate(129.001 201.821)">
        <rect id="Rectangle_223" data-name="Rectangle 223" width="62.408" height="118.266" fill="#5456a1"/>
      </g>
      <g id="Group_1134" data-name="Group 1134" transform="translate(191.567 142.865)">
        <rect id="Rectangle_224" data-name="Rectangle 224" width="62.4" height="177.221" fill="#052d72"/>
      </g>
      <g id="Group_1135" data-name="Group 1135" transform="translate(254.124 99.532)">
        <rect id="Rectangle_225" data-name="Rectangle 225" width="62.4" height="220.555" fill="#5456a1"/>
      </g>
      <g id="Group_1136" data-name="Group 1136" transform="translate(316.681 42.349)">
        <rect id="Rectangle_226" data-name="Rectangle 226" width="62.4" height="277.738" fill="#007db6"/>
      </g>
    </g>
    <g id="Group_1141" data-name="Group 1141" transform="translate(226.808 281.508)">
      <g id="Group_1138" data-name="Group 1138" transform="translate(0 25.86)">
        <path id="Path_1515" data-name="Path 1515" d="M164.518,489.948l-11.941-8.339,35.255-50.483h32.315l33.08-62.8h33.465l32.922-48.031H352.2l32.063-58.609,11.767-12.706,10.7,9.884L395.58,270.9l-34.711,63.96H327.285l-32.906,48.024H262.016L228.936,445.7H195.431Z" transform="translate(-152.577 -248.978)" fill="#052d72"/>
      </g>
      <g id="Group_1140" data-name="Group 1140" transform="translate(221.581)">
        <g id="Group_1139" data-name="Group 1139">
          <path id="Path_1516" data-name="Path 1516" d="M222.679,302.443l12.847-56.67-55.495,17.2Z" transform="translate(-180.031 -245.773)" fill="#052d72"/>
        </g>
      </g>
    </g>
    <g id="Group_1144" data-name="Group 1144" transform="translate(535.366 510.685)">
      <g id="Group_1142" data-name="Group 1142" transform="translate(13.086 33.079)">
        <rect id="Rectangle_227" data-name="Rectangle 227" width="28.109" height="33.74" fill="#5456a1"/>
      </g>
      <g id="Group_1143" data-name="Group 1143">
        <path id="Path_1517" data-name="Path 1517" d="M245.614,308.383H191.332l27.138-35.623h0Z" transform="translate(-191.332 -272.761)" fill="#5456a1"/>
      </g>
    </g>
    <g id="Group_1147" data-name="Group 1147" transform="translate(208.042 349.937)">
      <g id="Group_1145" data-name="Group 1145" transform="translate(13.081 33.079)">
        <rect id="Rectangle_228" data-name="Rectangle 228" width="28.114" height="33.74" fill="#5456a1"/>
      </g>
      <g id="Group_1146" data-name="Group 1146">
        <path id="Path_1518" data-name="Path 1518" d="M204.533,294.328H150.252l27.138-35.622h0Z" transform="translate(-150.252 -258.706)" fill="#5456a1"/>
      </g>
    </g>
    <g id="Group_1150" data-name="Group 1150" transform="translate(284.144 251.72)">
      <g id="Group_1148" data-name="Group 1148" transform="translate(8.265 20.899)">
        <rect id="Rectangle_229" data-name="Rectangle 229" width="17.753" height="21.309" fill="#5456a1"/>
      </g>
      <g id="Group_1149" data-name="Group 1149">
        <path id="Path_1519" data-name="Path 1519" d="M198.478,263.224H164.188l17.144-22.5h0Z" transform="translate(-164.188 -240.72)" fill="#5456a1"/>
      </g>
    </g>
  </g>
</svg>
