<svg xmlns="http://www.w3.org/2000/svg" width="85.454" height="59.818" viewBox="0 0 85.454 59.818">
  <g id="distribution" transform="translate(0 -0.5)">
    <path id="Path_1310" data-name="Path 1310" d="M332.8.5h2.848V3.348H332.8Zm0,0" transform="translate(-277.256)" fill="#b3e4e8"/>
    <path id="Path_1311" data-name="Path 1311" d="M452.266.5h9.97V3.348h-9.97Zm0,0" transform="translate(-376.782)" fill="#fbd699"/>
    <path id="Path_1312" data-name="Path 1312" d="M452.266,34.633h9.97v2.848h-9.97Zm0,0" transform="translate(-376.782 -28.436)" fill="#fbd699"/>
    <path id="Path_1313" data-name="Path 1313" d="M452.266,68.766h9.97v2.848h-9.97Zm0,0" transform="translate(-376.782 -56.872)" fill="#fbd699"/>
    <path id="Path_1314" data-name="Path 1314" d="M384.014,13.307a4.273,4.273,0,1,1-4.273-4.272A4.273,4.273,0,0,1,384.014,13.307Zm0,0" transform="translate(-312.802 -7.111)" fill="#5456a1"/>
    <path id="Path_1315" data-name="Path 1315" d="M332.8,145.566h2.848v2.848H332.8Zm0,0" transform="translate(-277.256 -120.854)" fill="#b3e4e8"/>
    <path id="Path_1316" data-name="Path 1316" d="M452.266,137.035h9.97v2.848h-9.97Zm0,0" transform="translate(-376.782 -113.747)" fill="#99d8aa"/>
    <path id="Path_1317" data-name="Path 1317" d="M452.266,171.168h9.97v2.848h-9.97Zm0,0" transform="translate(-376.782 -142.183)" fill="#99d8aa"/>
    <path id="Path_1318" data-name="Path 1318" d="M452.266,205.3h9.97v2.848h-9.97Zm0,0" transform="translate(-376.782 -170.619)" fill="#99d8aa"/>
    <path id="Path_1319" data-name="Path 1319" d="M384.014,149.839a4.273,4.273,0,1,1-4.273-4.273A4.273,4.273,0,0,1,384.014,149.839Zm0,0" transform="translate(-312.802 -120.854)" fill="#007db6"/>
    <path id="Path_1320" data-name="Path 1320" d="M332.8,273.566h2.848v2.848H332.8Zm0,0" transform="translate(-277.256 -227.491)" fill="#b3e4e8"/>
    <path id="Path_1321" data-name="Path 1321" d="M452.266,273.566h9.97v2.848h-9.97Zm0,0" transform="translate(-376.782 -227.491)" fill="#eea5a9"/>
    <path id="Path_1322" data-name="Path 1322" d="M452.266,307.7h9.97v2.848h-9.97Zm0,0" transform="translate(-376.782 -255.927)" fill="#eea5a9"/>
    <path id="Path_1323" data-name="Path 1323" d="M452.266,341.832h9.97v2.848h-9.97Zm0,0" transform="translate(-376.782 -284.363)" fill="#eea5a9"/>
    <path id="Path_1324" data-name="Path 1324" d="M384.014,286.374a4.273,4.273,0,1,1-4.273-4.272A4.273,4.273,0,0,1,384.014,286.374Zm0,0" transform="translate(-312.802 -234.601)" fill="#007db6"/>
    <g id="Group_1104" data-name="Group 1104" transform="translate(27.06 33.257)">
      <path id="Path_1325" data-name="Path 1325" d="M162.133,196.766h2.848v2.848h-2.848Zm0,0" transform="translate(-162.133 -196.766)" fill="#6fbbc6"/>
      <path id="Path_1326" data-name="Path 1326" d="M196.266,196.766h2.848v2.848h-2.848Zm0,0" transform="translate(-190.569 -196.766)" fill="#6fbbc6"/>
      <path id="Path_1327" data-name="Path 1327" d="M230.4,196.766h2.848v2.848H230.4Zm0,0" transform="translate(-219.004 -196.766)" fill="#6fbbc6"/>
      <path id="Path_1328" data-name="Path 1328" d="M264.535,196.766h2.848v2.848h-2.848Zm0,0" transform="translate(-247.444 -196.766)" fill="#6fbbc6"/>
      <path id="Path_1329" data-name="Path 1329" d="M162.133,230.9h2.848v2.848h-2.848Zm0,0" transform="translate(-162.133 -225.201)" fill="#6fbbc6"/>
      <path id="Path_1330" data-name="Path 1330" d="M196.266,230.9h2.848v2.848h-2.848Zm0,0" transform="translate(-190.569 -225.201)" fill="#6fbbc6"/>
      <path id="Path_1331" data-name="Path 1331" d="M230.4,230.9h2.848v2.848H230.4Zm0,0" transform="translate(-219.004 -225.201)" fill="#6fbbc6"/>
    </g>
    <path id="Path_1332" data-name="Path 1332" d="M236.1,230.9v5.7h-5.7v2.848h8.546V230.9Zm0,0" transform="translate(-191.944 -191.944)" fill="#69b0bb"/>
    <path id="Path_1333" data-name="Path 1333" d="M162.133,265.035h2.848v2.848h-2.848Zm0,0" transform="translate(-135.073 -220.383)" fill="#6fbbc6"/>
    <path id="Path_1334" data-name="Path 1334" d="M196.266,265.035h2.848v2.848h-2.848Zm0,0" transform="translate(-163.509 -220.383)" fill="#6fbbc6"/>
    <path id="Path_1335" data-name="Path 1335" d="M170.668,85.832h17.09V97.226h-17.09Zm0,0" transform="translate(-142.183 -71.09)" fill="#5456a1"/>
    <path id="Path_1336" data-name="Path 1336" d="M8.531,239.434H29.895v5.7H8.531Zm0,0" transform="translate(-7.107 -199.055)" fill="#007db6"/>
    <path id="Path_1337" data-name="Path 1337" d="M100.988,125.663H96.715a2.849,2.849,0,0,1,0-5.7h4.273Zm0,0" transform="translate(-78.2 -99.526)" fill="#007db6"/>
    <path id="Path_1338" data-name="Path 1338" d="M8.531,77.311a8.546,8.546,0,0,0,8.546-8.545H8.531Z" transform="translate(-7.107 -56.872)" fill="#007db6"/>
    <path id="Path_1339" data-name="Path 1339" d="M8.531,154.1a8.546,8.546,0,0,1,8.546,8.545H8.531Z" transform="translate(-7.107 -127.965)" fill="#007db6"/>
    <path id="Path_1340" data-name="Path 1340" d="M93.867,205.3h7.121v17.09H93.867Zm0,0" transform="translate(-78.201 -170.619)" fill="#5456a1"/>
    <path id="Path_1356" data-name="Path 1356" d="M95.3,119.979H89.6a4.273,4.273,0,1,1,0-8.545h5.7Zm-5.7-5.7a1.424,1.424,0,1,0,0,2.848h2.848v-2.848Zm0,0" transform="translate(-71.09 -92.419)" fill="#052d72"/>
    <path id="Path_1357" data-name="Path 1357" d="M1.424,71.628H0V60.234H11.394v1.424a9.981,9.981,0,0,1-9.97,9.97Zm1.425-8.545v5.553A7.141,7.141,0,0,0,8.4,63.083Zm0,0" transform="translate(0 -49.765)" fill="#052d72"/>
    <path id="Path_1358" data-name="Path 1358" d="M11.394,156.96H0V145.566H1.424a9.981,9.981,0,0,1,9.97,9.97Zm-8.545-2.848H8.4a7.141,7.141,0,0,0-5.553-5.553Zm0,0" transform="translate(0 -120.854)" fill="#052d72"/>
    <path id="Path_1359" data-name="Path 1359" d="M95.3,216.7h-9.97v-19.94H95.3Zm-7.121-2.848h4.273V199.613H88.18Zm0,0" transform="translate(-71.09 -163.508)" fill="#052d72"/>
    <path id="Path_1360" data-name="Path 1360" d="M24.212,85.87H0V60.234H24.212ZM2.848,83.021H21.364V63.082H2.848Zm0,0" transform="translate(0 -49.764)" fill="#052d72"/>
    <path id="Path_1361" data-name="Path 1361" d="M24.212,91.568H0V60.235H24.212ZM2.848,88.719H21.364V63.083H2.848Zm0,0" transform="translate(0 -49.765)" fill="#052d72"/>
    <path id="Path_1362" data-name="Path 1362" d="M24.212,97.265H0V60.235H24.212ZM2.848,94.417H21.364V63.083H2.848Zm0,0" transform="translate(0 -49.765)" fill="#052d72"/>
    <path id="Path_1363" data-name="Path 1363" d="M24.212,102.961H0V60.234H24.212ZM2.848,100.113H21.364V63.082H2.848Zm0,0" transform="translate(0 -49.764)" fill="#052d72"/>
    <g id="Group_1115" data-name="Group 1115">
      <path id="Path_1341" data-name="Path 1341" d="M332.8.5h2.848V3.348H332.8Zm0,0" transform="translate(-277.256)" fill="#052d72"/>
      <path id="Path_1342" data-name="Path 1342" d="M452.266.5h9.97V3.348h-9.97Zm0,0" transform="translate(-376.782)" fill="#052d72"/>
      <path id="Path_1343" data-name="Path 1343" d="M452.266,34.633h9.97v2.848h-9.97Zm0,0" transform="translate(-376.782 -28.436)" fill="#052d72"/>
      <path id="Path_1344" data-name="Path 1344" d="M452.266,68.766h9.97v2.848h-9.97Zm0,0" transform="translate(-376.782 -56.872)" fill="#052d72"/>
      <path id="Path_1345" data-name="Path 1345" d="M372.63,11.894a5.7,5.7,0,1,1,5.7-5.7A5.7,5.7,0,0,1,372.63,11.894Zm0-8.545A2.848,2.848,0,1,0,375.478,6.2a2.852,2.852,0,0,0-2.848-2.848Zm0,0" transform="translate(-305.691)" fill="#052d72"/>
      <path id="Path_1346" data-name="Path 1346" d="M332.8,145.566h2.848v2.848H332.8Zm0,0" transform="translate(-277.256 -120.854)" fill="#052d72"/>
      <path id="Path_1347" data-name="Path 1347" d="M452.266,137.035h9.97v2.848h-9.97Zm0,0" transform="translate(-376.782 -113.747)" fill="#052d72"/>
      <path id="Path_1348" data-name="Path 1348" d="M452.266,171.168h9.97v2.848h-9.97Zm0,0" transform="translate(-376.782 -142.183)" fill="#052d72"/>
      <path id="Path_1349" data-name="Path 1349" d="M452.266,205.3h9.97v2.848h-9.97Zm0,0" transform="translate(-376.782 -170.619)" fill="#052d72"/>
      <path id="Path_1350" data-name="Path 1350" d="M372.63,148.429a5.7,5.7,0,1,1,5.7-5.7A5.7,5.7,0,0,1,372.63,148.429Zm0-8.545a2.848,2.848,0,1,0,2.848,2.848A2.852,2.852,0,0,0,372.63,139.884Zm0,0" transform="translate(-305.691 -113.747)" fill="#052d72"/>
      <path id="Path_1351" data-name="Path 1351" d="M332.8,273.566h2.848v2.848H332.8Zm0,0" transform="translate(-277.256 -227.491)" fill="#052d72"/>
      <path id="Path_1352" data-name="Path 1352" d="M452.266,273.566h9.97v2.848h-9.97Zm0,0" transform="translate(-376.782 -227.491)" fill="#052d72"/>
      <path id="Path_1353" data-name="Path 1353" d="M452.266,307.7h9.97v2.848h-9.97Zm0,0" transform="translate(-376.782 -255.927)" fill="#052d72"/>
      <path id="Path_1354" data-name="Path 1354" d="M452.266,341.832h9.97v2.848h-9.97Zm0,0" transform="translate(-376.782 -284.363)" fill="#052d72"/>
      <path id="Path_1355" data-name="Path 1355" d="M372.63,284.96a5.7,5.7,0,1,1,5.7-5.7A5.7,5.7,0,0,1,372.63,284.96Zm0-8.545a2.848,2.848,0,1,0,2.848,2.848A2.853,2.853,0,0,0,372.63,276.415Zm0,0" transform="translate(-305.691 -227.491)" fill="#052d72"/>
      <path id="Path_1364" data-name="Path 1364" d="M162.133,196.766h2.848v2.848h-2.848Zm0,0" transform="translate(-135.073 -163.509)" fill="#052d72"/>
      <path id="Path_1365" data-name="Path 1365" d="M196.266,196.766h2.848v2.848h-2.848Zm0,0" transform="translate(-163.509 -163.509)" fill="#052d72"/>
      <path id="Path_1366" data-name="Path 1366" d="M230.4,196.766h2.848v2.848H230.4Zm0,0" transform="translate(-191.944 -163.509)" fill="#052d72"/>
      <path id="Path_1367" data-name="Path 1367" d="M264.535,196.766h2.848v2.848h-2.848Zm0,0" transform="translate(-220.383 -163.509)" fill="#052d72"/>
      <path id="Path_1368" data-name="Path 1368" d="M162.133,230.9h2.848v2.848h-2.848Zm0,0" transform="translate(-135.073 -191.944)" fill="#052d72"/>
      <path id="Path_1369" data-name="Path 1369" d="M196.266,230.9h2.848v2.848h-2.848Zm0,0" transform="translate(-163.509 -191.944)" fill="#052d72"/>
      <path id="Path_1370" data-name="Path 1370" d="M230.4,230.9h2.848v2.848H230.4Zm0,0" transform="translate(-191.944 -191.944)" fill="#052d72"/>
      <path id="Path_1371" data-name="Path 1371" d="M230.4,265.035h5.7v2.848h-5.7Zm0,0" transform="translate(-191.944 -220.383)" fill="#052d72"/>
      <path id="Path_1372" data-name="Path 1372" d="M264.535,230.9h2.848v8.546h-2.848Zm0,0" transform="translate(-220.383 -191.944)" fill="#052d72"/>
      <path id="Path_1373" data-name="Path 1373" d="M162.133,265.035h2.848v2.848h-2.848Zm0,0" transform="translate(-135.073 -220.383)" fill="#052d72"/>
      <path id="Path_1374" data-name="Path 1374" d="M196.266,265.035h2.848v2.848h-2.848Zm0,0" transform="translate(-163.509 -220.383)" fill="#052d72"/>
      <path id="Path_1375" data-name="Path 1375" d="M182.073,91.543h-19.94V77.3h19.94Zm-17.091-2.848h14.243V80.149H164.982Zm0,0" transform="translate(-135.073 -63.983)" fill="#052d72"/>
    </g>
    <path id="Path_1376" data-name="Path 1376" d="M159.333,88.743H128V43.168h31.333Zm-28.485-2.848h25.637V46.016H130.848Zm0,0" transform="translate(-106.637 -35.547)" fill="#052d72"/>
  </g>
</svg>
